<svg width="20" height="12" viewBox="0 0 20 12" fill="none" xmlns="http://www.w3.org/2000/svg">
<path d="M19.6564 5.56561C19.616 5.51447 18.647 4.29883 16.9856 3.07828C14.7656 1.44722 12.35 0.585083 9.99993 0.585083C7.65 0.585083 5.23438 1.44722 3.01426 3.07828C1.35295 4.29878 0.383892 5.51447 0.34348 5.56561L0 6.00003L0.343524 6.43449C0.383936 6.48563 1.35299 7.70131 3.01431 8.92186C5.23443 10.5529 7.65004 11.415 9.99998 11.415C12.35 11.415 14.7656 10.5529 16.9856 8.92186C18.647 7.70131 19.616 6.48563 19.6564 6.43449L20 6.00003L19.6564 5.56561ZM9.99993 9.7935C7.90823 9.7935 6.20646 8.09177 6.20646 6.00003C6.20646 5.67231 6.24823 5.35418 6.32673 5.05063L5.46066 4.90487C5.3758 5.25624 5.33079 5.62296 5.33079 6.00003C5.33079 7.35118 5.90795 8.56993 6.82836 9.42331C5.64354 8.98565 4.63604 8.3715 3.87566 7.81607C2.93361 7.12802 2.22761 6.43212 1.82511 6.00003C2.22778 5.5678 2.9337 4.87199 3.87566 4.18398C4.63604 3.62855 5.64358 3.0144 6.82836 2.5767L7.40936 3.23161C8.08792 2.59623 8.99922 2.20655 9.99993 2.20655C12.0916 2.20655 13.7934 3.90828 13.7934 6.00003C13.7934 8.09177 12.0916 9.7935 9.99993 9.7935ZM16.1242 7.81607C15.3637 8.3715 14.3563 8.98565 13.1715 9.42331C14.0919 8.56997 14.669 7.35122 14.669 5.99998C14.669 4.64874 14.0919 3.43003 13.1715 2.57665C14.3563 3.01436 15.3637 3.6285 16.1242 4.18394C17.0663 4.87199 17.7723 5.56789 18.1748 5.99994C17.7721 6.43226 17.0662 7.1281 16.1242 7.81607Z" fill="white"/>
<path d="M7.58584 5.26264C7.51465 5.49596 7.47607 5.74346 7.47607 6.00008C7.47607 7.39388 8.60599 8.52384 9.99983 8.52384C11.3936 8.52384 12.5235 7.39392 12.5235 6.00008C12.5235 4.60624 11.3936 3.47632 9.99983 3.47632C9.32093 3.47632 8.70512 3.74489 8.25148 4.18097L9.49632 5.58414L7.58584 5.26264Z" fill="white"/>
</svg>
