<svg width="62" height="12" viewBox="0 0 62 12" fill="none" xmlns="http://www.w3.org/2000/svg">
<path d="M24 1.38591C25.3491 1.38591 26.6919 1.33805 28.0397 1.28118C30.056 1.1961 32.1462 0.853103 34.1592 1.07171C35.1641 1.18084 36.3044 1.45852 35.2963 2.4931C33.6065 4.22736 31.4727 5.80786 29.4611 7.1388C28.2666 7.92914 26.6299 8.48133 25.6084 9.5028C25.3116 9.79962 26.4235 10.278 26.5585 10.3257C28.1231 10.8793 29.9602 10.4975 31.5708 10.408C33.6334 10.2934 35.684 10.106 37.7351 9.86937" stroke="#332F6C" stroke-linecap="round" stroke-linejoin="round"/>
<path d="M1.24365 4.42112C7.3476 4.79266 13.4477 3.8644 19.5571 4.01714" stroke="#332F6C" stroke-linecap="round" stroke-linejoin="round"/>
<path d="M1 7.70157C7.10394 8.07312 13.204 7.14486 19.3135 7.2976" stroke="#332F6C" stroke-linecap="round" stroke-linejoin="round"/>
<path d="M42.2437 4.42112C48.3476 4.79266 54.4477 3.8644 60.5571 4.01714" stroke="#332F6C" stroke-linecap="round" stroke-linejoin="round"/>
<path d="M42 7.70157C48.1039 8.07312 54.204 7.14486 60.3135 7.2976" stroke="#332F6C" stroke-linecap="round" stroke-linejoin="round"/>
</svg>