<svg xmlns:xlink="http://www.w3.org/1999/xlink" xmlns="http://www.w3.org/2000/svg">
<symbol id="react" width="32" height="32" viewBox="0 0 32 32" fill="none" xmlns="http://www.w3.org/2000/svg">
<path d="M15.9732 18.6559C17.4519 18.6559 18.6506 17.4573 18.6506 15.9786C18.6506 14.5 17.4519 13.3013 15.9732 13.3013C14.4946 13.3013 13.2959 14.5 13.2959 15.9786C13.2959 17.4573 14.4946 18.6559 15.9732 18.6559Z" fill="#00D8FF"/>
<path d="M15.9735 22.112C12.2135 22.112 8.92815 21.6693 6.46948 20.8267C4.87482 20.2827 3.52015 19.5573 2.55482 18.7307C1.53082 17.856 0.986816 16.9013 0.986816 15.9787C0.986816 14.208 2.92815 12.4747 6.18682 11.344C8.85348 10.416 12.3308 9.89868 15.9682 9.89868C19.5415 9.89868 22.9708 10.4 25.6215 11.3173C27.1735 11.8507 28.4802 12.544 29.4082 13.312C30.4162 14.1547 30.9495 15.0773 30.9495 15.9787C30.9495 17.8187 28.7788 19.68 25.2802 20.8373C22.8055 21.6587 19.4988 22.112 15.9735 22.112ZM15.9735 11.1787C12.5228 11.1787 9.10948 11.68 6.61348 12.5493C3.61615 13.5947 2.27215 15.024 2.27215 15.9787C2.27215 16.9707 3.71748 18.5333 6.88548 19.616C9.21082 20.4107 12.3575 20.832 15.9735 20.832C19.3655 20.832 22.5282 20.4053 24.8802 19.6213C28.1708 18.528 29.6748 16.9653 29.6748 15.9787C29.6748 15.472 29.2908 14.8747 28.5922 14.2933C27.7868 13.6213 26.6135 13.008 25.2108 12.5227C22.6882 11.6587 19.4082 11.1787 15.9735 11.1787Z" fill="#00D8FF"/>
<path d="M9.89858 29.3227C9.35458 29.3227 8.87458 29.2053 8.46924 28.9707C6.93858 28.0853 6.40524 25.536 7.05058 22.1493C7.57858 19.3707 8.86924 16.1067 10.6879 12.9547C12.4746 9.86132 14.6186 7.14132 16.7359 5.30132C17.9732 4.22398 19.2266 3.43465 20.3572 3.01865C21.5892 2.56531 22.6559 2.56531 23.4346 3.01332C25.0292 3.93065 25.5572 6.74665 24.8106 10.352C24.2826 12.912 23.0239 16 21.2639 19.056C19.3866 22.3093 17.3599 24.9333 15.4026 26.6453C14.1332 27.7547 12.8266 28.5653 11.6319 28.9867C11.0079 29.2107 10.4212 29.3227 9.89858 29.3227ZM11.2372 13.2747L11.7919 13.5947C10.0692 16.5813 8.79458 19.7867 8.30391 22.3893C7.71191 25.5093 8.28258 27.3867 9.10391 27.8613C9.30658 27.9787 9.57324 28.0427 9.89858 28.0427C10.9599 28.0427 12.6292 27.3707 14.5599 25.6853C16.4106 24.0693 18.3466 21.552 20.1546 18.4213C21.8506 15.4827 23.0559 12.528 23.5572 10.1013C24.2559 6.70398 23.6532 4.62398 22.7946 4.12798C22.3572 3.87732 21.6479 3.90932 20.7946 4.22398C19.8079 4.58665 18.6932 5.29598 17.5732 6.27198C15.5626 8.02132 13.5092 10.624 11.7919 13.6L11.2372 13.2747Z" fill="#00D8FF"/>
<path d="M22.0481 29.3387C20.5974 29.3387 18.7574 28.4641 16.8374 26.8107C14.6934 24.9654 12.5121 22.2187 10.6881 19.0667C8.8961 15.9734 7.6161 12.7574 7.07743 10.0001C6.76276 8.3894 6.7041 6.91207 6.90676 5.72273C7.13076 4.42673 7.65876 3.50407 8.44276 3.05073C10.0321 2.12807 12.7361 3.0774 15.4881 5.5254C17.4401 7.25873 19.4881 9.8934 21.2534 12.9441C23.1361 16.1974 24.4001 19.2641 24.9014 21.8134C25.2268 23.4667 25.2801 25.0027 25.0508 26.2507C24.8054 27.5787 24.2508 28.5227 23.4508 28.9867C23.0508 29.2214 22.5761 29.3387 22.0481 29.3387ZM11.7974 18.4267C13.5254 21.4134 15.6694 24.1174 17.6748 25.8401C20.0801 27.9094 21.9894 28.3574 22.8161 27.8774C23.6748 27.3814 24.3041 25.3494 23.6534 22.0641C23.1734 19.6534 21.9628 16.7201 20.1494 13.5894C18.4481 10.6507 16.4908 8.12807 14.6401 6.4854C12.0481 4.1814 9.94676 3.66407 9.0881 4.16007C8.65076 4.41073 8.32543 5.0454 8.17076 5.9414C7.99476 6.97607 8.0481 8.29873 8.3361 9.75474C8.8481 12.3734 10.0748 15.4507 11.7974 18.4267Z" fill="#00D8FF"/>
</symbol>
<symbol id="redux" width="32" height="30" viewBox="0 0 32 30" fill="none" xmlns="http://www.w3.org/2000/svg">
<path d="M22.1726 20.9518C23.3535 20.831 24.2494 19.8257 24.2086 18.6192C24.168 17.4129 23.1499 16.4477 21.9282 16.4477H21.8469C20.5844 16.4879 19.6071 17.5335 19.6479 18.7801C19.6886 19.3833 19.9329 19.9061 20.2994 20.268C18.9149 22.9625 16.7974 24.9329 13.6211 26.5817C11.4629 27.7077 9.22325 28.1099 6.98362 27.8285C5.15112 27.5871 3.72587 26.7829 2.82987 25.4557C1.52687 23.4852 1.40475 21.3538 2.50425 19.2225C3.278 17.6943 4.4995 16.5683 5.27325 16.0053C5.11037 15.4825 4.866 14.5978 4.74387 13.9545C-1.16075 18.177 -0.549876 23.8874 1.24187 26.5817C2.58562 28.5925 5.314 29.8392 8.32737 29.8392C9.14175 29.8392 9.95612 29.7587 10.7706 29.5577C15.983 28.5523 19.933 25.4959 22.1726 20.9518ZM29.3396 15.9652C26.2447 12.386 21.684 10.4156 16.4716 10.4156H15.8201C15.4536 9.69173 14.6799 9.20908 13.8247 9.20908H13.7432C12.481 9.24932 11.5037 10.2949 11.5444 11.5416C11.5851 12.748 12.6031 13.7131 13.8247 13.7131H13.9061C14.802 13.6729 15.5757 13.1099 15.9015 12.3458H16.6345C19.7294 12.3458 22.6612 13.2305 25.3082 14.9598C27.3442 16.2869 28.8102 18.0161 29.6246 20.1072C30.3169 21.7962 30.2761 23.445 29.5431 24.8526C28.403 26.9839 26.4891 28.1501 23.9644 28.1501C22.3355 28.1501 20.7881 27.6675 19.9736 27.3056C19.5257 27.7077 18.7112 28.3511 18.1411 28.7534C19.8922 29.5576 21.684 30 23.3942 30C27.3035 30 30.1947 27.8686 31.2942 25.7373C32.4751 23.4048 32.3936 19.3833 29.3396 15.9652ZM8.65312 21.6352C8.69387 22.8417 9.71187 23.8068 10.9335 23.8068H11.015C12.2774 23.7667 13.2546 22.721 13.2139 21.4744C13.1732 20.2679 12.1551 19.3029 10.9335 19.3029H10.8521C10.7706 19.3029 10.6484 19.3029 10.5671 19.343C8.8975 16.6084 8.20525 13.6327 8.44962 10.4155C8.61237 8.00258 9.42687 5.9114 10.8521 4.18213C12.033 2.69419 14.3134 1.97034 15.8609 1.93022C20.1772 1.84974 22.0096 7.15801 22.1319 9.28944C22.6612 9.41004 23.5571 9.69161 24.168 9.89269C23.6792 3.37805 19.6071 0 15.698 0C12.033 0 8.65312 2.61396 7.30925 6.47453C5.43612 11.622 6.65775 16.5683 8.93812 20.4691C8.73462 20.7506 8.61237 21.193 8.65312 21.6354V21.6352Z" fill="#764ABC"/>
</symbol>
<symbol id="redux-saga" width="51" height="31" viewBox="0 0 51 31" fill="none" xmlns="http://www.w3.org/2000/svg">
<path d="M27.2427 11.456C27.2425 11.103 27.335 10.7563 27.5109 10.4506C27.6869 10.145 27.94 9.89122 28.2448 9.71496C28.5497 9.53869 28.8955 9.44614 29.2473 9.44661C29.5992 9.44708 29.9447 9.54057 30.2491 9.71765C32.0633 9.0496 34.0837 8.70007 36.1846 8.70007C41.8102 8.70007 46.6354 11.2204 48.2665 14.8474C48.2526 15.7061 47.0364 16.106 46.5512 15.579C45.2138 12.6657 40.9889 10.5686 36.1846 10.5686C34.4384 10.5686 32.7625 10.836 31.245 11.3467C31.2599 11.6149 31.221 11.8833 31.1306 12.1362C31.0403 12.389 30.9003 12.6211 30.7189 12.8187C30.5376 13.0163 30.3186 13.1754 30.0748 13.2867C29.8311 13.3979 29.5676 13.459 29.2999 13.4663C29.0322 13.4736 28.7658 13.427 28.5164 13.3292C28.267 13.2314 28.0397 13.0845 27.8479 12.8971C27.6561 12.7096 27.5037 12.4855 27.3998 12.238C27.2958 11.9905 27.2424 11.7246 27.2427 11.456ZM49.7369 18.9301C49.7371 18.6096 49.6608 18.2937 49.5145 18.0088C49.3682 17.7239 49.156 17.4783 48.8957 17.2924C48.6355 17.1065 48.3346 16.9858 48.0183 16.9403C47.7021 16.8949 47.3795 16.9259 47.0777 17.031C46.7758 17.136 46.5034 17.312 46.2832 17.5442C46.063 17.7764 45.9013 18.058 45.8117 18.3657C45.7222 18.6733 45.7073 18.9979 45.7683 19.3125C45.8293 19.6271 45.9645 19.9225 46.1626 20.174C45.5228 21.1605 44.5284 22.0541 43.2543 22.7717C41.2864 23.8784 38.776 24.4884 36.1838 24.4884C33.9393 24.4884 31.7843 24.0428 29.9501 23.198C28.7107 22.6268 27.68 21.9061 26.9097 21.076C26.399 20.7777 25.2184 21.7294 25.6464 22.4548C27.9597 24.8681 31.8832 26.3577 36.1838 26.3577C39.0897 26.3577 41.9246 25.6633 44.166 24.4016C45.8087 23.477 47.0836 22.2796 47.8856 20.9327C48.3889 20.894 48.8591 20.6663 49.2023 20.2951C49.5455 19.9238 49.7364 19.4364 49.7369 18.9301Z" fill="#89D96D"/>
<path d="M11.1534 22.6998C9.3269 20.3244 8.29232 16.9725 8.29232 13.3533C8.29232 10.0595 9.15846 6.951 10.7308 4.59965C12.3789 2.13282 14.6087 0.775024 17.0086 0.775024C19.196 0.775024 21.2813 1.93132 22.8815 4.03003C24.392 6.01248 25.3748 8.71645 25.6476 11.6452C24.9993 11.2858 24.3308 10.9642 23.6457 10.6819C22.8707 6.02643 20.1386 2.64355 17.0086 2.64355C15.2493 2.64355 13.5687 3.70762 12.2769 5.64048C10.9085 7.68725 10.1544 10.4269 10.1544 13.3541C10.1544 16.5719 11.1024 19.6269 12.7119 21.6652C13.1571 21.6207 13.6043 21.727 13.9823 21.9672C14.3602 22.2074 14.647 22.5677 14.7971 22.9904C14.9471 23.4132 14.9517 23.8742 14.8101 24.2999C14.6684 24.7256 14.3888 25.0915 14.0157 25.3392C13.6426 25.5869 13.1975 25.7021 12.7515 25.6665C12.3055 25.631 11.8843 25.4466 11.5549 25.1429C11.2255 24.8392 11.007 24.4335 10.9343 23.9907C10.8615 23.548 10.9387 23.0935 11.1534 22.6998ZM25.4034 12.7945C22.1336 10.9004 18.4851 10.1487 15.4656 10.6772C15.1467 10.363 14.7322 10.1649 14.2881 10.1143C13.844 10.0637 13.3957 10.1636 13.0148 10.3981C12.6338 10.6325 12.3419 10.9881 12.1857 11.4082C12.0295 11.8283 12.0179 12.2887 12.1527 12.7161C12.2875 13.1436 12.561 13.5135 12.9297 13.7671C13.2984 14.0206 13.741 14.1431 14.1871 14.1151C14.6332 14.0871 15.0572 13.9103 15.3915 13.6127C15.7258 13.3151 15.9513 12.9139 16.032 12.4729C18.5732 12.0962 21.6584 12.7829 24.4716 14.4127C27.9076 16.4021 30.3376 19.4905 30.8128 22.3541C31.4054 22.6021 32.0521 22.8145 32.7521 22.9796C32.5698 19.2596 29.7241 15.2954 25.4034 12.7945ZM25.8972 28.279C24.0938 28.5092 22.0478 28.2217 20.0358 27.4668C19.4579 27.9148 18.8459 28.3348 18.2031 28.7231C20.3403 29.7073 22.5794 30.2243 24.6563 30.2243C25.1593 30.2243 25.6538 30.194 26.1336 30.1328C28.6207 29.8158 30.5918 28.6905 31.7253 26.9514C31.0837 26.7955 30.4517 26.6028 29.8323 26.3741C28.9599 27.3947 27.5931 28.0628 25.8972 28.279ZM23.9029 20.9382C24.3503 20.9334 24.7833 20.7784 25.1326 20.498C25.482 20.2176 25.7277 19.828 25.8305 19.3912C25.9333 18.9544 25.8874 18.4957 25.7 18.0882C25.5126 17.6806 25.1945 17.3478 24.7965 17.1427C24.3986 16.9376 23.9436 16.8721 23.5041 16.9567C23.0647 17.0412 22.6662 17.2709 22.3721 17.6092C22.078 17.9474 21.9053 18.3747 21.8815 18.8228C21.8578 19.271 21.9843 19.7142 22.241 20.0818C21.8601 21.001 21.3014 21.9209 20.589 22.7974C19.4872 24.1521 18.0385 25.3704 16.3997 26.3198C14.1119 27.6458 11.6479 28.3573 9.38176 28.3565C9.14533 28.3565 8.91044 28.3488 8.67865 28.3333C6.36379 28.1775 4.60523 27.2498 3.72519 25.7223C2.16598 23.0129 3.72055 18.9379 7.34582 15.941C7.25668 15.2742 7.20252 14.6032 7.18357 13.9307L7.0808 13.7873C4.71959 15.49 2.90386 17.6879 1.96663 19.9741C0.973779 22.3968 1.02555 24.7698 2.11189 26.6562C3.31182 28.7401 5.59963 29.9987 8.55348 30.1979C8.82468 30.2157 9.09897 30.225 9.37558 30.225C11.9678 30.225 14.7609 29.4268 17.3308 27.938C20.3943 26.1648 22.7463 23.6321 23.9029 20.9382Z" fill="#999999"/>
</symbol>
<symbol id="webpack" width="32" height="32" viewBox="0 0 32 32" fill="none" xmlns="http://www.w3.org/2000/svg">
<path d="M16 0.00537109L30.1334 8.00004V23.9947L16 31.9894L1.8667 23.9947V8.00004L16 0.00537109Z" fill="white"/>
<path d="M27.6106 23.4399L16.4693 29.7493V24.8426L23.4133 21.0186L27.6106 23.4399ZM28.3733 22.7519V9.56794L24.2987 11.9199V20.3999L28.3733 22.7519ZM4.34665 23.4399L15.488 29.7439V24.8373L8.54398 21.0186L4.34665 23.4399ZM3.58398 22.7519V9.56794L7.65865 11.9199V20.3999L3.58398 22.7519ZM4.05865 8.71461L15.488 2.25061V6.99728L8.16532 11.0239L8.10665 11.0559L4.05865 8.71461ZM27.8933 8.71461L16.4693 2.25061V6.99728L23.7866 11.0293L23.8453 11.0613L27.8933 8.71461Z" fill="#8ED6FB"/>
<path d="M15.4881 23.7227L8.64014 19.952V12.4907L15.4881 16.4427V23.7227ZM16.4695 23.7227L23.3175 19.9573V12.4907L16.4695 16.4427V23.7227ZM9.0988 11.6267L15.9788 7.84534L22.8535 11.6267L15.9788 15.5947L9.0988 11.6267Z" fill="#1C78C0"/>
</symbol>
<symbol id="graphql" width="29" height="32" viewBox="0 0 29 32" fill="none" xmlns="http://www.w3.org/2000/svg">
<g clip-path="url(#clip0)">
<path fill-rule="evenodd" clip-rule="evenodd" d="M17.284 3.66475L23.9842 7.45882C24.1776 7.25809 24.3996 7.08581 24.6432 6.94731C26.0327 6.16384 27.8051 6.62901 28.6123 7.99188C29.4111 9.35474 28.9368 11.0929 27.5472 11.8845C27.3053 12.0211 27.0447 12.1228 26.7734 12.1867V19.7776C27.0418 19.8415 27.2995 19.9426 27.5389 20.0778C28.9368 20.8694 29.4111 22.6076 28.604 23.9705C27.8051 25.3333 26.0245 25.7984 24.6348 25.0151C24.3656 24.8636 24.1231 24.6705 23.9166 24.4432L17.2573 28.214C17.3548 28.5036 17.4043 28.8067 17.404 29.1117C17.404 30.6785 16.106 31.9598 14.5 31.9598C12.894 31.9598 11.5961 30.6866 11.5961 29.1117C11.5961 28.8317 11.6371 28.5613 11.7135 28.3058L5.01521 24.5129C4.8239 24.7096 4.60504 24.8787 4.36521 25.0151C2.96732 25.7984 1.19492 25.3333 0.39606 23.9705C-0.402685 22.6076 0.071623 20.8694 1.46113 20.0778C1.7005 19.9426 1.95827 19.8415 2.22668 19.7775V12.1867C1.95531 12.1228 1.6947 12.0211 1.45286 11.8845C0.0632401 11.1011 -0.411068 9.35474 0.387791 7.99188C1.18665 6.62901 2.9672 6.16384 4.35682 6.94731C4.59914 7.08507 4.82003 7.25624 5.01272 7.4556L11.7148 3.66053C11.6358 3.39755 11.5958 3.12477 11.5961 2.85061C11.5961 1.27577 12.894 0.00256348 14.5 0.00256348C16.106 0.00256348 17.404 1.27566 17.404 2.85061C17.404 3.13369 17.3621 3.40689 17.284 3.66475ZM16.586 4.83375L23.3021 8.6367C23.1951 9.00334 23.1645 9.38732 23.2119 9.76582C23.2593 10.1443 23.3839 10.5096 23.5782 10.8399C23.987 11.5374 24.653 11.9998 25.3921 12.18V19.7804C25.3544 19.7894 25.3169 19.7992 25.2796 19.8097L16.5079 4.90985C16.5344 4.88496 16.5605 4.85963 16.586 4.83386V4.83375ZM12.4939 4.91152L3.72234 19.8111C3.68441 19.8004 3.64626 19.7904 3.60792 19.7811V12.18C4.34708 11.9998 5.01306 11.5374 5.42189 10.8399C5.61656 10.509 5.74123 10.1429 5.78846 9.76365C5.8357 9.38438 5.80454 8.99967 5.69683 8.63248L12.411 4.83064C12.4381 4.85808 12.4657 4.88508 12.4939 4.91141V4.91152ZM15.3115 5.58645L24.081 20.4827C23.8801 20.6707 23.7079 20.8861 23.5698 21.1223C23.4319 21.3571 23.3289 21.6099 23.2637 21.8732H5.73659C5.67131 21.6099 5.56817 21.3571 5.43028 21.1223C5.29162 20.8878 5.11976 20.6737 4.91983 20.4864L13.6911 5.58712C13.954 5.66138 14.2264 5.69893 14.5 5.69866C14.7818 5.69866 15.054 5.65955 15.3115 5.58645ZM16.6476 27.193L23.3201 23.4147C23.3001 23.353 23.2822 23.2907 23.2665 23.2278H5.73285C5.72356 23.2648 5.71348 23.3015 5.70272 23.338L12.4078 27.1348C12.6786 26.8587 13.0035 26.6392 13.3631 26.4894C13.7227 26.3397 14.1094 26.2629 14.5 26.2636C14.9043 26.2629 15.3043 26.3452 15.6741 26.5053C16.044 26.6654 16.3756 26.8996 16.6476 27.193Z" fill="#E535AB"/>
</g>
<defs>
<clipPath id="clip0">
<rect width="29" height="32" fill="white"/>
</clipPath>
</defs>
</symbol>
<symbol id="gulp" width="14" height="32" viewBox="0 0 14 32" fill="none" xmlns="http://www.w3.org/2000/svg">
<path d="M10.7862 31.0247L11.083 25.912L11.9023 24.4658C11.9023 24.4658 10.0375 25.2546 6.91563 25.2546C3.79368 25.2546 1.9572 24.4804 1.9572 24.4804L2.87542 26.058L3.20024 31.0247C3.20024 31.5571 4.89839 31.9887 6.99327 31.9887C9.08803 31.9887 10.7862 31.5571 10.7862 31.0247ZM9.85025 7.14933L10.4731 4.60375L13.922 0.851037L13.013 0.050415L9.36157 4.04799L8.63844 7.08929C8.09419 7.07043 7.54968 7.06106 7.00513 7.06119C3.15951 7.06119 0.0419922 7.51439 0.0419922 8.07332C0.0419922 8.6323 3.15951 9.08544 7.00513 9.08544C10.8507 9.08544 13.9682 8.6323 13.9682 8.07332C13.9682 7.66173 12.2774 7.30746 9.85025 7.14933Z" fill="#D34A47"/>
<path d="M9.48826 8.57487C9.48826 8.57487 9.35338 8.60613 8.9566 8.60788C8.55971 8.60958 8.27792 8.60523 8.16567 8.4995C8.13549 8.47112 8.11898 8.41475 8.11914 8.37659C8.11947 8.30394 8.16933 8.26114 8.23287 8.23434L8.29295 8.33181C8.26682 8.34114 8.25189 8.35217 8.25184 8.36393C8.25162 8.41911 8.65764 8.45687 8.96819 8.4528C9.2788 8.44884 9.65409 8.42239 9.65442 8.368C9.65442 8.35154 9.62604 8.33605 9.57667 8.32384L9.63648 8.22705C9.71697 8.25289 9.78722 8.30281 9.78706 8.3892C9.78629 8.53608 9.60554 8.55841 9.48826 8.57487Z" fill="white"/>
<path d="M13.9154 0.858701C14.0021 0.755125 13.8705 0.490192 13.6215 0.26704C13.3723 0.0440009 13.1 -0.0529036 13.0132 0.0506723C12.9264 0.154248 13.058 0.419181 13.3072 0.64222C13.5562 0.865315 13.8286 0.962333 13.9154 0.858701ZM10.6205 18.5368C10.5388 17.7235 12.3407 16.5458 11.8783 16.5081C10.8827 16.5669 10.3873 17.7144 9.8864 18.9163C9.70285 19.3568 9.0748 21.2351 8.66288 21.0038C8.25107 20.7727 9.19678 19.2282 9.46185 18.3109C9.15599 18.5428 8.03434 19.444 7.74527 18.6C7.28053 19.0082 6.28747 19.2293 6.3995 18.1572C6.15226 18.6101 5.59736 19.2423 4.93131 18.9796C4.05662 18.6346 5.43815 15.7535 5.78167 15.8988C6.12525 16.0441 5.71234 16.7005 5.6042 16.9553C5.36636 17.5162 5.09162 18.2214 5.27516 18.3657C5.5896 18.613 6.44526 17.4302 6.46429 17.4042C6.62432 17.1855 7.08026 15.7552 7.44773 15.9195C7.8152 16.0837 6.53116 17.9722 7.01126 18.347C7.10809 18.4226 7.50426 18.3003 7.74527 18.0307C7.9012 17.8563 7.84757 17.47 8.36736 16.1882C8.88716 14.9064 9.35042 13.3102 9.7069 13.4318C10.0634 13.5533 9.76956 14.3726 9.64167 14.678C9.04156 16.1115 8.00383 18.4796 8.49322 18.3003C8.98262 18.1211 9.23746 18.1106 9.71669 17.5307C10.1959 16.9508 10.1738 15.9956 10.4932 16.0159C10.8128 16.0363 10.7591 16.3425 10.6816 16.5757C10.996 16.2037 12.1719 15.4202 12.4557 16.1962C12.792 17.1149 10.7734 18.4419 11.2767 18.3742C11.7674 18.3082 12.5624 17.7875 12.9018 17.3142L13.8361 8.62859C13.8361 8.62859 12.896 9.43312 6.91487 9.43312C0.933691 9.43312 0.0908203 8.64533 0.0908203 8.64533L0.886233 16.5732C1.30843 15.3324 2.31101 12.8226 3.89134 12.9068C4.6102 12.9451 5.56986 14.3765 4.74782 14.425C4.39987 14.4455 4.36455 13.7105 3.95252 13.6026C3.65519 13.5247 3.24125 13.7747 2.97373 14.0455C2.44021 14.5854 1.29274 16.7157 1.44436 17.7777C1.63752 19.1317 3.25126 17.3072 3.5243 16.7655C3.71659 16.384 3.8465 15.2534 4.26706 15.3721C4.68768 15.4907 4.23038 16.6574 3.92551 17.6889C3.58302 18.8472 3.40298 20.069 2.97373 19.9284C2.54442 19.788 3.24371 18.2927 3.2184 18.0307C2.81489 18.4157 2.07153 19.3903 1.12052 18.9079L1.6145 23.831C1.6145 23.831 2.92742 24.9037 6.88244 24.9037C10.8375 24.9037 12.199 23.8478 12.199 23.8478L12.8124 18.1456C12.3105 18.6509 10.7222 19.5483 10.6205 18.5368Z" fill="#D34A47"/>
</symbol>
<symbol id="nodejs" width="27" height="31" viewBox="0 0 27 31" fill="none" xmlns="http://www.w3.org/2000/svg">
<path d="M13.4998 0.366455C13.0896 0.366455 12.6906 0.451148 12.3375 0.650851L1.16272 7.10003C0.439564 7.51657 0 8.30287 0 9.13958V22.0145C0 22.8506 0.439564 23.6359 1.16272 24.0534L4.08105 25.7371C5.49899 26.4354 6.02166 26.4245 6.66699 26.4245C8.76621 26.4245 9.96486 25.1515 9.96486 22.9392V10.23C9.96486 10.0504 9.80922 9.92192 9.6328 9.92192H8.23299C8.05361 9.92192 7.90093 10.0504 7.90093 10.23V22.9392C7.90093 23.9196 6.87869 24.906 5.22003 24.0772L2.18298 22.2989C2.07548 22.2406 1.99304 22.1375 1.99304 22.0145V9.13925C1.99304 9.01732 2.07449 8.89308 2.18298 8.83112L13.334 2.406C13.3843 2.37658 13.4417 2.36108 13.5 2.36108C13.5584 2.36108 13.6156 2.37658 13.666 2.406L24.8174 8.83145C24.9235 8.89538 25.0073 9.01369 25.0073 9.13991V22.0149C25.0073 22.1378 24.9453 22.2637 24.8411 22.323L13.666 28.7484C13.5704 28.8054 13.4385 28.8054 13.334 28.7484L10.4631 27.0414C10.4194 27.0177 10.3705 27.0053 10.3208 27.0053C10.2711 27.0053 10.2222 27.0177 10.1785 27.0414C9.38614 27.4902 9.23709 27.5423 8.49382 27.8C8.31081 27.8639 8.03284 27.9631 8.5888 28.2746L12.3375 30.4792C12.6909 30.683 13.0921 30.7894 13.5002 30.7877C13.9082 30.7902 14.3094 30.6838 14.6625 30.4795L25.8376 24.0538C26.5608 23.6336 27 22.8509 27 22.0149V9.13958C27 8.30319 26.5608 7.51822 25.8376 7.10069L14.6625 0.651511C14.3124 0.451478 13.9107 0.366784 13.5002 0.366784L13.4998 0.366455Z" fill="#83CD29"/>
<path d="M16.489 9.56616C13.3069 9.56616 11.4118 10.9196 11.4118 13.1704C11.4118 15.6117 13.2927 16.2826 16.3469 16.5845C20.0006 16.942 20.2852 17.4782 20.2852 18.1969C20.2852 19.4436 19.2906 19.9752 16.9401 19.9752C13.9865 19.9752 13.3375 19.2383 13.1202 17.7702C13.0945 17.6126 12.9728 17.4854 12.8116 17.4854H11.3643C11.1862 17.4854 11.0322 17.639 11.0322 17.8176C11.0322 19.697 12.0551 21.9195 16.9401 21.9195C20.4761 21.9195 22.5156 20.5324 22.5156 18.102C22.5156 15.6931 20.8682 15.0462 17.4381 14.593C13.9723 14.1346 13.6419 13.9102 13.6419 13.0992C13.6419 12.4296 13.9222 11.5339 16.489 11.5339C18.7821 11.5339 19.6296 12.0282 19.9768 13.5734C20.0072 13.7184 20.1351 13.8341 20.2852 13.8341H21.7328C21.8218 13.8341 21.9082 13.7794 21.9699 13.7155C22.0306 13.6472 22.0734 13.5705 22.0649 13.4785C21.8406 10.8178 20.0652 9.56616 16.489 9.56616Z" fill="#83CD29"/>
</symbol>
</svg>
