<svg width="29" height="28" viewBox="0 0 29 28" fill="none" xmlns="http://www.w3.org/2000/svg">
<g clip-path="url(#clip0)">
<path d="M18.3616 10.1381C21.629 13.4089 21.5842 18.6528 18.3813 21.8735C18.3753 21.8801 18.3682 21.8872 18.3616 21.8937L14.6866 25.5687C11.4453 28.8101 6.17183 28.8096 2.931 25.5687C-0.310332 22.328 -0.310332 17.0539 2.931 13.8131L4.96023 11.7839C5.49836 11.2458 6.42509 11.6034 6.45287 12.3639C6.48831 13.3331 6.66211 14.3068 6.98279 15.2471C7.0914 15.5655 7.0138 15.9176 6.77591 16.1555L6.06021 16.8712C4.52754 18.4039 4.47947 20.8995 5.99705 22.4472C7.52961 24.0101 10.0486 24.0194 11.5929 22.4751L15.2679 18.8006C16.8096 17.2589 16.8032 14.767 15.2679 13.2318C15.0655 13.0298 14.8617 12.8728 14.7024 12.7632C14.5898 12.6858 14.4967 12.5832 14.4308 12.4635C14.3648 12.3438 14.3277 12.2103 14.3225 12.0738C14.3009 11.4959 14.5056 10.9004 14.9622 10.4438L16.1136 9.29231C16.4156 8.99038 16.8892 8.95331 17.2393 9.19765C17.6403 9.47762 18.0158 9.79232 18.3616 10.1381ZM26.069 2.43034C22.8282 -0.810547 17.5547 -0.810984 14.3134 2.43034L10.6384 6.10534C10.6318 6.11191 10.6247 6.11902 10.6187 6.12558C7.41586 9.34623 7.37096 14.5902 10.6384 17.861C10.9842 18.2067 11.3597 18.5214 11.7606 18.8014C12.1107 19.0457 12.5844 19.0086 12.8863 18.7067L14.0377 17.5553C14.4943 17.0986 14.6991 16.5031 14.6774 15.9253C14.6722 15.7887 14.6351 15.6552 14.5692 15.5355C14.5032 15.4158 14.4102 15.3132 14.2975 15.2359C14.1383 15.1262 13.9344 14.9693 13.732 14.7672C12.1968 13.232 12.1903 10.7401 13.732 9.19841L17.407 5.52396C18.9513 3.97964 21.4703 3.98894 23.0029 5.55185C24.5205 7.09951 24.4725 9.59512 22.9397 11.1278L22.224 11.8435C21.9861 12.0814 21.9085 12.4336 22.0171 12.752C22.3378 13.6923 22.5116 14.666 22.5471 15.6351C22.5749 16.3956 23.5016 16.7533 24.0397 16.2151L26.0689 14.1859C29.3103 10.9452 29.3103 5.67112 26.069 2.43034Z" fill="#E2F3F5"/>
</g>
<defs>
<clipPath id="clip0">
<rect width="28" height="28" fill="white" transform="translate(0.5)"/>
</clipPath>
</defs>
</svg>
